# AST/ASF file generated using VICON BodyLanguage
# -----------------------------------------------
:version 1.10
:name VICON
:units
  mass 1.0
  length 0.45
  angle deg
:documentation
   .ast/.asf automatically generated from VICON data using
   VICON BodyBuilder and BodyLanguage model FoxedUp or BRILLIANT.MOD
:root
   order TX TY TZ RX RY RZ
   axis XYZ
   position 0 0 0  
   orientation 0 0 0 
:bonedata
  begin
     id 1 
     name lhipjoint
     direction 0.645893 -0.654526 0.392961 
     length 2.38111 
     axis 0 0 0  XYZ
  end
  begin
     id 2 
     name lfemur
     direction 0.34202 -0.939693 0  
     length 6.6822  
     axis 0 0 20  XYZ
    dof rx ry rz
    limits (-160.0 20.0)
           (-70.0 70.0)
           (-60.0 70.0)
  end
  begin
     id 3 
     name ltibia
     direction 0.34202 -0.939693 0   
     length 6.93904   
     axis 0 0 20   XYZ
    dof rx
    limits (-10.0 170.0)
  end
  begin
     id 4 
     name lfoot
     direction 0.0694967 -0.190941 0.979138   
     length 2.13616   
     axis -90 7.62852e-016 20   XYZ
    dof rx rz
    limits (-45.0 90.0)
           (-70.0 20.0)
  end
  begin
     id 5 
     name ltoes
     direction 1.535e-011 -4.2202e-011 1   
     length 1.07536   
     axis -90 7.62852e-016 20   XYZ
    dof rx
    limits (-90.0 20.0)
  end
  begin
     id 6 
     name rhipjoint
     direction -0.700219 -0.612087 0.367481   
     length 2.54621  
     axis 0 0 0  XYZ 
  end
  begin
     id 7 
     name rfemur
     direction -0.34202 -0.939693 0   
     length 6.55353   
     axis 0 0 -20   XYZ
    dof rx ry rz
    limits (-160.0 20.0)
           (-70.0 70.0)
           (-70.0 60.0)
  end
  begin
     id 8 
     name rtibia
     direction -0.34202 -0.939693 0   
     length 6.8736   
     axis 0 0 -20   XYZ
    dof rx
    limits (-10.0 170.0)
 end
 begin
     id 9 
     name rfoot
     direction -0.0679995 -0.186827 0.980037   
     length 2.1218  
     axis -90 -7.62852e-016 -20   XYZ
    dof rx rz
    limits (-45.0 90.0)
           (-20.0 70.0)
  end
  begin
     id 10 
     name rtoes
     direction -1.53589e-011 -4.21772e-011 1   
     length 1.06864   
     axis -90 -7.62852e-016 -20   XYZ
    dof rx
    limits (-90.0 20.0)
  end
  begin
     id 11 
     name lowerback
     direction -0.0416607 0.996347 -0.0745409   
     length 2.12205   
     axis 0 0 0   XYZ
    dof rx ry rz
    limits (-20.0 45.0)
           (-30.0 30.0)
           (-30.0 30.0)
  end
  begin
     id 12 
     name upperback
     direction -0.000153993 0.999276 -0.0380568   
     length 2.12759   
     axis 0 0 0   XYZ
    dof rx ry rz
    limits (-20.0 45.0)
           (-30.0 30.0)
           (-30.0 30.0)
  end
  begin
     id 13 
     name thorax
     direction 0.0187671 0.999821 -0.00241421   
     length 2.13704   
     axis 0 0 0   XYZ
    dof rx ry rz
    limits (-20.0 45.0)
           (-30.0 30.0)
           (-30.0 30.0)
  end
  begin
     id 14 
     name lowerneck
     direction 0.0268157 0.964865 0.261374   
     length 1.65253   
     axis 0 0 0   XYZ
    dof rx ry rz
    limits (-20.0 45.0)
           (-30.0 30.0)
           (-30.0 30.0)
  end
  begin
     id 15 
     name upperneck
     direction 0.00263774 0.939908 -0.341418   
     length 1.72375   
     axis 0 0 0   XYZ
    dof rx ry rz
    limits (-20.0 45.0)
           (-30.0 30.0)
           (-30.0 30.0)
  end
  begin
     id 16
     name head
     direction -0.00526001 0.989001 -0.147818  
     length 1.74878  
     axis 0 0 0   XYZ
    dof rx ry rz
    limits (-20.0 45.0)
           (-30.0 30.0)
           (-30.0 30.0)
  end
  begin
     id 17 
     name lclavicle
     direction 0.881214 0.461162 -0.103884  
     length 3.25108  
     axis 0 0 0   XYZ
    dof ry rz
    limits (-20.0 10.0)
           (0.0 20.0)
  end
  begin
     id 18 
     name lhumerus
     direction 1 -4.4899e-011 3.38092e-027   
     length 4.87408   
     axis 180 -30 -90   XYZ
    dof rx ry rz
    limits (-60.0 90.0)
           (-90.0 90.0)
           (-90.0 90.0)
  end
  begin
     id 19
     name lradius
     direction 1 -4.48931e-011 9.96288e-027   
     length 2.76729   
     axis 180 -30 -90   XYZ
    dof rx
    limits (-10.0 170.0)
  end
  begin
     id 20
     name lwrist
     direction 1 -4.4896e-011 1.50617e-026   
     length 1.38364   
     axis -9.31234e-015 90 90   XYZ
    dof ry
    limits (-180.0 0.0)
 end
  begin
     id 21 
     name lhand
     direction 1 -4.49038e-011 3.01286e-026   
     length 0.98922   
     axis -1.92217e-014 90 90   XYZ
    dof rx rz
    limits (-90.0 90.0)
           (-45.0 45.0)
  end
  begin
     id 22 
     name lfingers
     direction 1 -4.49051e-011 6.02588e-026   
     length 0.797535   
     axis -3.84436e-014 90 90   XYZ
    dof rx
    limits (0.0 90.0)
  end
  begin
     id 23
     name lthumb
     direction 0.707107 -6.34901e-011 0.707107   
     length 1.14511   
     axis -90 45 2.19363e-014   XYZ
    dof rx rz
    limits (-45.0 45.0)
           (-45.0 45.0)
  end
  begin
     id 24 
     name rclavicle
     direction -0.893894 0.441652 -0.0767889   
     length 3.29361  
     axis 0 0 0   XYZ 
    dof ry rz
    limits (-10.0 20.0)
           (-20.0 0.0)
  end
  begin
     id 25 
     name rhumerus
     direction -1 -4.48945e-011 8.0491e-028  
     length 4.71404   
     axis 180 30 90   XYZ
    dof rx ry rz
    limits (-90.0 60.0)
           (-90.0 90.0)
           (-90.0 90.0)
  end
  begin
     id 26 
     name rradius
     direction -1 -4.48986e-011 9.27795e-027   
     length 2.83468   
     axis 180 30 90   XYZ
    dof rx
    limits (-10.0 170.0)
  end
  begin
     id 27 
     name rwrist
     direction -1 -4.49029e-011 1.5064e-026   
     length 1.41734   
     axis -9.31234e-015 -90 -90   XYZ
    dof ry
    limits (-180.0 0.0)
  end
  begin
     id 28
     name rhand
     direction -1 -4.48857e-011 3.01165e-026   
     length 0.868195   
     axis -1.92217e-014 -90 -90   XYZ
    dof rx rz
    limits (-90.0 90.0)
           (-45.0 45.0)
  end
  begin
     id 29
     name rfingers
     direction -1 -4.49048e-011 6.02585e-026   
     length 0.699961   
     axis -3.84436e-014 -90 -90   XYZ
    dof rx
    limits (0.0 90.0)
  end
  begin
     id 30
     name rthumb
     direction -0.707107 -6.34854e-011 0.707107   
     length 1.00501   
     axis -90 -45 -2.19363e-014   XYZ
    dof rx rz
    limits (-45.0 45.0)
           (-45.0 45.0)
  end
:hierarchy
  begin
    root lhipjoint rhipjoint lowerback
    lhipjoint lfemur
    lfemur ltibia
    ltibia lfoot
    lfoot ltoes
    rhipjoint rfemur
    rfemur rtibia
    rtibia rfoot
    rfoot rtoes
    lowerback upperback
    upperback thorax
    thorax lowerneck lclavicle rclavicle
    lowerneck upperneck
    upperneck head
    lclavicle lhumerus
    lhumerus lradius
    lradius lwrist
    lwrist lhand lthumb
    lhand lfingers
    rclavicle rhumerus
    rhumerus rradius
    rradius rwrist
    rwrist rhand rthumb
    rhand rfingers
  end

#!OML:ASF H:\ManfredObstacles\Project 1\Capture day 2\Session 1\male.ASF
:FULLY-SPECIFIED
:DEGREES
91
root 1.48214 15.8662 28.8106 -171.667 4.02522 177.103
lowerback -5.01794 0.701474 -4.12185
upperback 0.455511 1.20569 -0.176754
thorax 3.20559 0.535342 2.22288
lowerneck -36.2736 0.828788 1.3407
upperneck 35.36 1.81206 -0.759344
head 19.9017 1.09026 0.00132835
rclavicle 4.62174e-015 -3.97569e-015
rhumerus -34.2971 -19.9406 -75.9386
rradius 23.8461
rwrist 36.7714
rhand -1.25067 -6.72417
rfingers 7.12502
rthumb 24.3919 -35.1916
lclavicle 4.62174e-015 -3.97569e-015
lhumerus -26.4018 21.0958 80.5805
lradius 18.9643
lwrist -53.3399
lhand 0.254398 6.11347
lfingers 7.12502
lthumb 25.834 34.379
rfemur -5.54305 1.30036 24.5613
rtibia 19.1099
rfoot -10.6599 -19.2083
rtoes -13.1033
lfemur -27.6575 -10.585 -15.9908
ltibia 24.792
lfoot 7.9392 17.8907
ltoes 7.869
92
root 1.48122 15.8673 28.805 -171.633 4.01581 177.065
lowerback -5.00307 0.647753 -4.11461
upperback 0.23211 1.13064 -0.184771
thorax 2.9715 0.507816 2.20253
lowerneck -36.2802 0.818138 1.42495
upperneck 35.6847 1.87775 -0.920114
head 20.1073 1.11784 -0.0680344
rclavicle 4.37326e-015 -6.95746e-015
rhumerus -34.7048 -19.7336 -75.856
rradius 23.842
rwrist 36.7765
rhand -1.33898 -6.54341
rfingers 7.12502
rthumb 24.3073 -35.0222
lclavicle 4.37326e-015 -6.95746e-015
lhumerus -26.9141 21.0449 80.4556
lradius 19.114
lwrist -53.1378
lhand 0.151554 5.89323
lfingers 7.12502
lthumb 25.7355 34.173
rfemur -5.55592 1.28394 24.5133
rtibia 19.099
rfoot -10.6727 -19.2111
rtoes -13.128
lfemur -27.683 -10.5769 -16.0468
ltibia 24.7998
lfoot 7.94107 17.8706
ltoes 7.81687
93
root 1.47976 15.8673 28.7996 -171.598 3.98689 177.076
lowerback -4.89626 0.584101 -4.12101
upperback 0.231712 1.0374 -0.11626
thorax 2.91597 0.461355 2.26838
lowerneck -36.3178 0.73358 1.08662
upperneck 35.8429 1.89693 -0.713289
head 20.2066 1.11546 0.102117
rclavicle 1.73937e-015 3.57812e-015
rhumerus -34.5406 -19.4155 -75.9751
rradius 23.8889
rwrist 36.7623
rhand -1.38237 -6.56288
rfingers 7.12502
rthumb 24.2657 -35.0473
lclavicle 1.73937e-015 3.57812e-015
lhumerus -26.8457 20.9147 80.7391
lradius 19.3094
lwrist -52.5037
lhand 0.197252 6.05787
lfingers 7.12502
lthumb 25.7793 34.3313
rfemur -5.55729 1.30903 24.5279
rtibia 19.0838
rfoot -10.6761 -19.2664
rtoes -13.0649
lfemur -27.7141 -10.5423 -16.0512
ltibia 24.8137
lfoot 7.9065 17.8365
ltoes 7.81894
94
root 1.47804 15.8682 28.7932 -171.579 4.00457 177.048
lowerback -4.89362 0.613686 -4.16655
upperback 0.271865 1.07992 -0.116858
thorax 2.95231 0.480253 2.29665
lowerneck -36.5048 0.804081 1.25128
upperneck 35.8722 1.94031 -0.823909
head 20.2758 1.13358 0.0303993
rclavicle -3.72721e-015 6.55989e-015
rhumerus -34.4627 -19.4625 -76.0083
rradius 23.9243
rwrist 36.7846
rhand -1.432 -6.53058
rfingers 7.12502
rthumb 24.2181 -35.0213
lclavicle -3.72721e-015 6.55989e-015
lhumerus -26.6397 20.4637 81.0726
lradius 19.4222
lwrist -51.8131
lhand 0.235158 6.13302
lfingers 7.12502
lthumb 25.8156 34.4012
rfemur -5.55649 1.29299 24.4805
rtibia 19.0749
rfoot -10.6846 -19.2299
rtoes -13.1318
lfemur -27.7101 -10.5573 -16.09
ltibia 24.8239
lfoot 7.8659 17.8798
ltoes 7.83856
95
root 1.47767 15.8683 28.7883 -171.548 3.97673 177.084
lowerback -4.74959 0.598868 -4.0884
upperback 0.151145 1.04734 -0.129489
thorax 2.75036 0.471954 2.23397
lowerneck -36.2681 0.789789 1.17966
upperneck 35.7558 1.91937 -0.730045
head 20.1422 1.13218 0.0819576
rclavicle -1.01877e-014 -2.18663e-015
rhumerus -34.6417 -19.2614 -76.1058
rradius 24.0548
rwrist 36.923
rhand -1.31131 -6.75434
rfingers 7.12502
rthumb 24.3338 -35.2296
lclavicle -1.01877e-014 -2.18663e-015
lhumerus -26.7522 19.9317 81.2478
lradius 19.6013
lwrist -51.1321
lhand 0.245963 6.24523
lfingers 7.12502
lthumb 25.8259 34.5119
rfemur -5.55336 1.33243 24.5314
rtibia 19.0535
rfoot -10.6412 -19.3068
rtoes -13.2236
lfemur -27.7456 -10.5375 -16.0537
ltibia 24.8486
lfoot 7.82905 17.8603
ltoes 7.91112
96
root 1.4762 15.8684 28.7829 -171.532 3.97132 177.042
lowerback -4.61419 0.591507 -4.1141
upperback 0.0616511 1.0319 -0.143283
thorax 2.58278 0.469445 2.23011
lowerneck -36.1783 0.815378 1.23305
upperneck 35.7965 1.94796 -0.742974
head 20.1466 1.15391 0.0755553
rclavicle 2.28602e-015 -8.74653e-015
rhumerus -34.76 -19.178 -76.136
rradius 24.1059
rwrist 37.1094
rhand -1.1782 -6.90717
rfingers 7.12502
rthumb 24.4614 -35.3653
lclavicle 2.28602e-015 -8.74653e-015
lhumerus -26.8398 19.5498 81.4141
lradius 19.7511
lwrist -50.5903
lhand 0.29685 6.37644
lfingers 7.12502
lthumb 25.8747 34.636
rfemur -5.53887 1.37789 24.4831
rtibia 19.0364
rfoot -10.6581 -19.3579
rtoes -13.1631
lfemur -27.7513 -10.5184 -16.114
ltibia 24.8662
lfoot 7.77734 17.8514
ltoes 7.89924
97
root 1.47493 15.8684 28.7771 -171.515 3.97775 177.041
lowerback -4.68726 0.625892 -4.09626
upperback 0.139717 1.08242 -0.172061
thorax 2.70184 0.491103 2.19568
lowerneck -36.2877 0.89657 1.46994
upperneck 35.6504 1.94268 -0.87568
head 20.0889 1.15389 -0.0366721
rclavicle 5.41688e-015 2.78299e-015
rhumerus -34.6459 -19.2574 -76.2184
rradius 24.1419
rwrist 37.0405
rhand -1.1802 -6.91632
rfingers 7.12502
rthumb 24.4595 -35.3747
lclavicle 5.41688e-015 2.78299e-015
lhumerus -26.6373 19.2477 81.6163
lradius 19.853
lwrist -50.3055
lhand 0.345957 6.43487
lfingers 7.12502
lthumb 25.9217 34.6876
rfemur -5.52906 1.4144 24.4775
rtibia 19.0243
rfoot -10.7396 -19.4112
rtoes -13.1427
lfemur -27.7536 -10.4656 -16.1392
ltibia 24.8768
lfoot 7.74017 17.8197
ltoes 7.86339
98
root 1.47303 15.8689 28.7701 -171.495 3.98797 177.025
lowerback -4.74648 0.598558 -4.10653
upperback 0.187595 1.0491 -0.149216
thorax 2.78623 0.471341 2.22419
lowerneck -36.2428 0.819527 1.24397
upperneck 35.6834 1.91856 -0.744107
head 20.0924 1.13592 0.0619296
rclavicle 3.40419e-015 -2.5842e-015
rhumerus -34.4749 -19.0757 -76.3347
rradius 24.1139
rwrist 36.9433
rhand -1.21356 -6.99685
rfingers 7.12502
rthumb 24.4275 -35.4595
lclavicle 3.40419e-015 -2.5842e-015
lhumerus -26.5593 19.1016 81.8128
lradius 19.9685
lwrist -49.9319
lhand 0.236743 6.42128
lfingers 7.12502
lthumb 25.8171 34.6893
rfemur -5.5197 1.47186 24.4507
rtibia 19.0317
rfoot -10.7406 -19.4375
rtoes -13.0652
lfemur -27.7406 -10.4205 -16.1834
ltibia 24.8673
lfoot 7.71112 17.7929
ltoes 7.82816
99
root 1.47134 15.8695 28.7631 -171.449 4.00208 176.973
lowerback -4.64862 0.587588 -4.13708
upperback 0.0966259 1.03146 -0.173017
thorax 2.63845 0.467483 2.21318
lowerneck -36.1421 0.791259 1.18716
upperneck 35.7147 1.91453 -0.717059
head 20.0857 1.13538 0.0851495
rclavicle 1.93815e-015 -9.93923e-016
rhumerus -34.6048 -19.0178 -76.3382
rradius 24.1341
rwrist 36.8347
rhand -1.30947 -6.79681
rfingers 7.12502
rthumb 24.3356 -35.2718
lclavicle 1.93815e-015 -9.93923e-016
lhumerus -26.7734 19.9588 81.3262
lradius 19.6927
lwrist -52.4143
lhand -0.387345 5.25384
lfingers 7.12502
lthumb 25.2193 33.6074
rfemur -5.53543 1.44313 24.3838
rtibia 19.0119
rfoot -10.7439 -19.4515
rtoes -13.1685
lfemur -27.7674 -10.397 -16.252
ltibia 24.8778
lfoot 7.68016 17.7787
ltoes 7.88858
100
root 1.47018 15.8715 28.7571 -171.416 4.03062 176.954
lowerback -4.55235 2.11857 -3.31264
upperback 0.495596 3.12576 -1.88609
thorax 2.99269 1.54194 0.132744
lowerneck -38.7353 0.479198 2.36282
upperneck 36.2604 -1.86353 -0.05881
head 21.0191 -0.643969 -1.07293
rclavicle -1.46604e-014 -2.98177e-015
rhumerus -35.4392 -25.232 -76.5061
rradius 24.4919
rwrist 37.6872
rhand -1.40257 -6.78912
rfingers 7.12502
rthumb 24.2463 -35.2761
lclavicle -1.46604e-014 -2.98177e-015
lhumerus -24.2713 12.4855 82.0769
lradius 19.6572
lwrist -49.856
lhand 0.009358 5.77794
lfingers 7.12502
lthumb 25.5993 34.0774
rfemur -5.53728 1.53086 24.3465
rtibia 18.9982
rfoot -10.8206 -19.425
rtoes -12.807
lfemur -27.7742 -10.3942 -16.2767
ltibia 24.8773
lfoot 7.6735 17.8159
ltoes 7.85418
101
root 1.46839 15.8703 28.7513 -171.386 4.01076 176.975
lowerback -4.66634 0.643049 -4.05614
upperback 0.0407688 1.10459 -0.250059
thorax 2.58871 0.508196 2.09293
lowerneck -36.0815 0.666953 1.06453
upperneck 35.6717 1.74773 -0.610849
head 20.0387 1.07237 0.113535
rclavicle -7.30534e-015 -7.95139e-016
rhumerus -34.779 -19.2744 -76.2991
rradius 24.0707
rwrist 36.7601
rhand -1.49607 -6.41815
rfingers 7.12502
rthumb 24.1566 -34.9171
lclavicle -7.30534e-015 -7.95139e-016
lhumerus -26.7152 18.017 82.1001
lradius 20.2738
lwrist -49.9429
lhand -0.00846714 5.90245
lfingers 7.12502
lthumb 25.5823 34.2044
rfemur -5.54537 1.49724 24.3707
rtibia 18.9922
rfoot -10.7526 -19.4675
rtoes -13.0924
lfemur -27.7936 -10.3306 -16.2802
ltibia 24.8771
lfoot 7.67187 17.7309
ltoes 7.80168
